<?xml version="1.0" encoding="utf-8"?>
<!-- Generator: Adobe Illustrator 26.0.3, SVG Export Plug-In . SVG Version: 6.00 Build 0)  -->
<svg version="1.1" id="Layer_1" xmlns="http://www.w3.org/2000/svg" xmlns:xlink="http://www.w3.org/1999/xlink" x="0px" y="0px"
	 viewBox="0 0 31 20.5" style="enable-background:new 0 0 31 20.5;" xml:space="preserve">
<style type="text/css">
	.st0{fill:#FBB03B;}
	.st1{fill:#FFFFFF;}
</style>
<g id="Background">
</g>
<g id="Graphic_Elements">
</g>
<g id="Text">
	<g>
		<g id="Graphic_Elements_1_">
			<path class="st0" d="M6.4,18.9l-0.2-0.3c0.6-0.6,1.2-1.1,1.6-1.8C8.2,16,8.3,15.2,8,14.5c-0.3-0.5-0.8-0.9-1.2-1.2l-0.2-0.2
				c-0.7-0.5-1.5-1.3-1.2-2.4c0.1-0.7,0.5-1.2,1-1.8l0,0c0.1-0.1,0.2-0.2,0.3-0.3C6.9,8.4,7.1,8.2,7.2,8c0.1-0.1,0.1-0.3,0-0.3
				c0-0.3-0.3-0.4-0.6-0.5C6.4,7.1,6.2,7,6.1,6.9c-0.5-0.1-1-0.3-1.4-0.5c-0.1,0-0.2-0.1-0.3-0.1c-0.9,0.4-1.9,0.5-3,0.6
				c-0.1,0-0.2,0-0.3,0.1C1,7,1.1,7.5,1.2,7.9s0.4,0.8,0.6,1.2C1.9,9.2,2,9.3,2.1,9.5C2.4,9.9,2.8,10.4,3,11
				c0.4,0.9,0.1,1.7-0.1,2.5c-0.1,0.2-0.1,0.4-0.2,0.6c-0.3,1.1-0.2,2.3,0,3.4l-0.3,0.1c-0.3-1.1-0.3-2.4,0-3.5
				c0.1-0.2,0.1-0.4,0.2-0.7c0.2-0.8,0.4-1.5,0.1-2.3c-0.2-0.5-0.5-1-0.9-1.4C1.7,9.5,1.6,9.4,1.5,9.3C1.3,8.9,1,8.5,0.9,8
				c0,0-0.3-1,0.1-1.4c0.1-0.1,0.3-0.2,0.5-0.2c1-0.1,1.8-0.2,2.7-0.5c-0.6-0.2-1-0.5-1.4-0.8L2.4,4.8C1.7,4.4,1.1,3.9,0.5,3.3
				c0,0-0.1-0.2-0.2-0.3c0-0.1,0-0.3,0.2-0.4c0.3-0.3,0.8-0.3,1.2-0.4h0.2C2.4,2.1,3,2.1,3.6,2.1V2c0.2-0.5,0.5-0.8,0.9-0.9
				C5.3,0.9,6,1.4,6.2,2c0,0.1,0.1,0.2,0.1,0.2c0.5,0,1.1,0.1,1.6,0.1c0.4,0,0.9,0.1,1.4,0.2c0.4,0.1,0.4,0.3,0.4,0.4
				c0,0.2-0.2,0.3-0.2,0.4C9.2,3.6,6.9,5,6,5.3c-0.2,0-0.4,0.1-0.6,0.1C5.3,5.6,5,5.8,4.8,6l0,0c0.4,0.2,0.9,0.4,1.3,0.6
				c0.2,0.1,0.3,0.1,0.5,0.2C7,7,7.4,7.1,7.6,7.5c0.1,0.2,0,0.4-0.1,0.6C7.4,8.4,7.1,8.6,6.9,8.8c0,0.1-0.1,0.2-0.2,0.3l0,0
				c-0.4,0.5-0.9,1-1,1.6c-0.2,0.7,0.1,1.4,1.1,2.1L6.9,13c0.5,0.4,1,0.7,1.3,1.3C8.6,15,8.5,16,8,16.9C7.6,17.7,7,18.3,6.4,18.9z
				 M3.5,2.4c-0.6,0-1.1,0-1.7,0.1H1.6c-0.3,0-0.7,0.1-0.9,0.3L0.6,2.9c0,0,0.1,0.1,0.1,0.2c0.5,0.6,1.2,1,1.8,1.5l0.3,0.3
				c0.5,0.4,1,0.7,1.5,1C4.7,5.7,4.8,5.6,5,5.4C4.6,5.3,4.3,5.1,4.1,4.8C3.9,4.6,3.8,4.3,3.7,4.1V4V3.9C3.6,4,3.5,4.1,3.4,4.1
				C3.3,4.1,3.1,4.1,3,4S2.9,3.8,2.9,3.6c0-0.3,0-0.5,0.2-0.6c0.1,0,0.3-0.1,0.4,0C3.5,2.8,3.5,2.6,3.5,2.4z M3.8,3.5
				c0,0.1,0,0.2,0.1,0.2c0,0.1,0,0.2,0.1,0.2L4,4c0.1,0.2,0.2,0.5,0.3,0.7C4.6,5,4.9,5,5.3,5c0.3-0.5,0.5-1,0.6-1.3S6.1,3,6.1,2.5
				c-0.7,0-1.5-0.1-2.2-0.1c0,0.3,0,0.5,0,0.8C3.9,3.3,3.9,3.4,3.8,3.5z M6.4,2.5c0,0.4,0,0.8-0.2,1.3C6.1,4.1,6,4.6,5.7,5
				c0.1,0,0.1,0,0.2,0C6.7,4.7,9,3.3,9.4,3.1C9.5,3,9.5,3,9.5,2.9c0,0,0-0.1-0.2-0.1C8.9,2.7,8.4,2.7,7.9,2.7
				C7.4,2.6,6.9,2.6,6.4,2.5z M3.4,3.3C3.3,3.3,3.3,3.3,3.4,3.3C3.2,3.4,3.2,3.5,3.2,3.6s0,0.1,0,0.1s0,0,0.1,0s0.1,0,0.1-0.1V3.5
				C3.5,3.4,3.4,3.3,3.4,3.3L3.4,3.3z M4,2.1c0.6,0,1.3,0,2,0.1V2.1C5.7,1.6,5.2,1.2,4.7,1.4C4.4,1.5,4.1,1.7,4,2.1z"/>
		</g>
		<g>
			<path class="st1" d="M7.4,12.2c0.2,0.1,0.5,0.2,0.8,0.2c0.5,0,0.7-0.2,0.7-0.6c0-0.3-0.2-0.5-0.7-0.7c-0.6-0.2-0.9-0.5-0.9-1
				c0-0.6,0.5-1,1.2-1c0.4,0,0.6,0.1,0.8,0.2L9.1,9.7C9,9.6,8.8,9.5,8.5,9.5C8,9.5,7.8,9.8,7.8,10c0,0.3,0.2,0.5,0.7,0.7
				c0.6,0.2,0.9,0.5,0.9,1s-0.4,1-1.2,1c-0.3,0-0.7-0.1-0.9-0.2L7.4,12.2z"/>
			<path class="st1" d="M10.8,12.7L9.9,9.2h0.5l0.4,1.8c0.1,0.4,0.2,0.9,0.3,1.2l0,0c0.1-0.4,0.2-0.8,0.3-1.2l0.5-1.8h0.5l0.4,1.8
				c0.1,0.4,0.2,0.8,0.2,1.2l0,0c0.1-0.4,0.2-0.8,0.3-1.2l0.5-1.8h0.5l-1,3.6h-0.5l-0.4-1.9c-0.1-0.5-0.2-0.8-0.2-1.2l0,0
				c-0.1,0.4-0.1,0.7-0.3,1.2l-0.5,1.9L10.8,12.7L10.8,12.7z"/>
			<path class="st1" d="M16.7,11.1h-1.4v1.3h1.5v0.4h-2V9.2h1.9v0.4h-1.5v1.1h1.4v0.4H16.7z"/>
			<path class="st1" d="M17.6,9.2c0.3,0,0.6-0.1,1-0.1c0.7,0,1.1,0.2,1.4,0.4c0.3,0.3,0.5,0.7,0.5,1.3s-0.2,1.1-0.5,1.4
				c-0.3,0.3-0.9,0.5-1.6,0.5c-0.3,0-0.6,0-0.8,0V9.2z M18,12.4c0.1,0,0.3,0,0.5,0c1,0,1.5-0.5,1.5-1.5c0-0.8-0.5-1.4-1.4-1.4
				c-0.2,0-0.4,0-0.5,0v2.9H18z"/>
			<path class="st1" d="M21.7,9.2v3.6h-0.5V9.2H21.7z"/>
			<path class="st1" d="M22.6,12.2c0.2,0.1,0.5,0.2,0.8,0.2c0.5,0,0.7-0.2,0.7-0.6c0-0.3-0.2-0.5-0.7-0.7c-0.6-0.2-0.9-0.5-0.9-1
				c0-0.6,0.5-1,1.2-1c0.4,0,0.6,0.1,0.8,0.2l-0.1,0.4c-0.1-0.1-0.4-0.2-0.7-0.2C23.2,9.5,23,9.8,23,10c0,0.3,0.2,0.5,0.7,0.7
				c0.6,0.2,0.9,0.5,0.9,1s-0.4,1-1.2,1c-0.3,0-0.7-0.1-0.9-0.2L22.6,12.2z"/>
			<path class="st1" d="M25.9,9.2v1.5h1.7V9.2h0.5v3.6h-0.5v-1.7h-1.7v1.7h-0.5V9.2H25.9z"/>
		</g>
		<g>
			<path class="st1" d="M11.2,13.9h1.9v0.4h-1.5v1.2H13v0.4h-1.3v1.6h-0.5V13.9z"/>
			<path class="st1" d="M13.8,16.4l-0.4,1.1H13l1.2-3.6h0.6l1.2,3.6h-0.5l-0.4-1.1H13.8z M15,16l-0.3-1c-0.1-0.2-0.1-0.4-0.2-0.7
				l0,0c-0.1,0.2-0.1,0.4-0.2,0.6l-0.3,1L15,16L15,16z"/>
			<path class="st1" d="M16.3,16.9c0.2,0.1,0.5,0.2,0.8,0.2c0.5,0,0.7-0.2,0.7-0.6c0-0.3-0.2-0.5-0.7-0.7c-0.6-0.2-0.9-0.5-0.9-1
				c0-0.6,0.5-1,1.2-1c0.4,0,0.6,0.1,0.8,0.2l-0.1,0.4c-0.1-0.1-0.4-0.2-0.7-0.2c-0.5,0-0.7,0.3-0.7,0.5c0,0.3,0.2,0.5,0.7,0.7
				c0.6,0.2,0.9,0.5,0.9,1s-0.4,1-1.2,1c-0.3,0-0.7-0.1-0.9-0.2L16.3,16.9z"/>
			<path class="st1" d="M19.5,13.9v1.5h1.7v-1.5h0.5v3.6h-0.5v-1.7h-1.7v1.7H19v-3.6H19.5z"/>
			<path class="st1" d="M23.1,13.9v3.6h-0.5v-3.6H23.1z"/>
			<path class="st1" d="M26.8,15.7c0,1.2-0.7,1.9-1.7,1.9c-0.9,0-1.6-0.7-1.6-1.8s0.7-1.9,1.7-1.9C26.2,13.9,26.8,14.6,26.8,15.7z
				 M24.1,15.7c0,0.8,0.4,1.4,1.1,1.4s1.1-0.7,1.1-1.5c0-0.7-0.4-1.4-1.1-1.4C24.4,14.2,24.1,14.9,24.1,15.7z"/>
			<path class="st1" d="M27.3,17.5v-3.6h0.5l1.1,1.8c0.3,0.4,0.5,0.8,0.6,1.2l0,0c0-0.5-0.1-0.9-0.1-1.5v-1.5H30v3.6h-0.5l-1.1-1.8
				c-0.2-0.4-0.5-0.8-0.7-1.2l0,0c0,0.4,0,0.9,0,1.5v1.5H27.3z"/>
		</g>
	</g>
</g>
</svg>
